<?xml version="1.0" encoding="UTF-8"?>
<svg id="Layer_1" data-name="Layer 1" xmlns="http://www.w3.org/2000/svg" xmlns:xlink="http://www.w3.org/1999/xlink" viewBox="0 0 1127.27 407.06">
  <defs>
    <style>
      .cls-1 {
        fill: none;
      }

      .cls-2 {
        clip-path: url(#clippath);
      }
    </style>
    <clipPath id="clippath">
      <rect class="cls-1" width="1127.27" height="407.06"/>
    </clipPath>
  </defs>
  <g class="cls-2">
    <path d="M1076.28,401.91h44.12l-6.14-182.62h-64.87l-37.98,137.04-37.98-137.04h-65.74l-6.43,182.62h43.24l1.17-140.54,40.03,137.62h49.67l40.03-137.91.88,140.83ZM869.12,327.4v-108.11h-46.17v107.82c0,28.34-11.4,40.03-33.31,40.03-24.25,0-35.36-14.32-35.36-41.78v-106.06h-46.17v112.2c0,51.43,32.73,74.8,80.35,74.8s80.64-26,80.64-78.89M670.72,219.3h-46.46v182.62h46.46v-182.62ZM547.71,311.04c0,36.52-21.04,53.76-54.64,53.76h-21.62v-108.4h19.28c37.98,0,56.98,16.95,56.98,54.64M594.46,309.29c0-54.35-36.52-89.99-100.81-89.99h-68.66v182.62h65.45c66.91,0,104.02-36.52,104.02-92.62M393.44,401.91v-37.4h-87.95v-35.65h70.71v-37.11h-70.71v-35.06h87.95v-37.4h-133.53v182.62h133.53ZM181.9,401.91h44.12l-6.14-182.62h-64.87l-37.98,137.04-37.98-137.04H13.3l-6.43,182.62h43.24l1.17-140.54,40.03,137.62h49.67l40.03-137.91.88,140.83Z"/>
    <path d="M1120.4,174.63v-36.29h-71.49V4.09h-43.38v170.54h114.87ZM922.03,104.5h-44.48l22.65-66.85,21.83,66.85ZM927.76,4.09h-54.3l-60.57,170.54h43.11l12.28-36.29h63.3l12.55,36.29h43.11L927.76,4.09ZM804.16,12.82C788.61,5.18,768.41,0,747.68,0,691.47,0,655.73,34.93,655.73,90.04s36.02,88.68,90.59,88.68c19.92,0,42.57-4.91,55.94-12.28l-9-38.47c-12.82,8.46-28.38,13.92-45.02,13.92-30.83,0-48.84-20.46-48.84-52.93s19.1-52.12,48.57-52.12c15.28,0,30.29,4.64,43.11,12.28l13.1-36.29ZM626.8,4.09h-43.38v170.54h43.38V4.09ZM511.93,89.77c0,34.11-19.65,50.21-51.02,50.21h-20.19V38.75h18.01c35.47,0,53.21,15.83,53.21,51.02M555.59,88.13c0-50.75-34.11-84.04-94.14-84.04h-64.12v170.54h61.12c62.48,0,97.14-34.11,97.14-86.5M367.87,174.63v-34.93h-82.13v-33.29h66.03v-34.65h-66.03v-32.74h82.13V4.09h-124.7v170.54h124.7ZM170.32,174.63h41.2l-5.73-170.54h-60.57l-35.47,127.97L74.27,4.09H12.88l-6,170.54h40.38l1.09-131.24,37.38,128.52h46.39l37.38-128.79.82,131.52Z"/>
  </g>
</svg>